<svg xmlns="http://www.w3.org/2000/svg" viewBox="0 0 124 33">
  <path fill="#253B80" d="M46.2 6.8h-6.5c-.4 0-.8.3-.9.8L35.5 29c-.1.3.2.6.5.6h3.3c.4 0 .8-.3.9-.8l.9-5.8c.1-.4.5-.8.9-.8h2.1c4.4 0 6.9-2.1 7.6-6.3.3-1.8 0-3.3-.9-4.3-1-1.1-2.8-1.8-5.5-1.8zm.8 6.2c-.4 2.3-2.2 2.3-3.9 2.3h-1l.7-4.4c0-.2.2-.4.5-.4h.5c1.2 0 2.3 0 2.9.7.4.4.5 1 .3 1.8z"/>
  <path fill="#253B80" d="M66.6 13h-3.3c-.2 0-.4.2-.5.4l-.1.7-.2-.3c-.7-1-2.2-1.3-3.8-1.3-3.5 0-6.5 2.7-7.1 6.4-.3 1.9.1 3.7 1.2 4.9 1 1.1 2.4 1.6 4.1 1.6 2.9 0 4.5-1.9 4.5-1.9l-.1.9c-.1.3.2.6.5.6h3c.4 0 .8-.3.9-.8l1.6-10.5c.1-.4-.2-.7-.5-.7zm-4.6 6c-.3 1.8-1.8 3-3.7 3-1 0-1.7-.3-2.2-.9-.5-.6-.7-1.4-.5-2.3.3-1.8 1.8-3 3.7-3 .9 0 1.7.3 2.2.9.5.5.7 1.4.5 2.3z"/>
  <path fill="#253B80" d="M84.1 13h-3.4c-.3 0-.6.1-.8.4l-4.6 6.8-1.9-6.4c-.1-.4-.5-.7-.9-.7h-3.3c-.4 0-.6.4-.5.7l3.6 10.6-3.4 4.8c-.3.4 0 .9.4.9H73c.3 0 .6-.1.8-.4l10.9-15.7c.2-.4 0-.9-.4-.9z"/>
  <path fill="#179BD7" d="M94.6 6.8h-6.5c-.4 0-.8.3-.9.8l-3.3 21.4c-.1.3.2.6.5.6h3.8c.3 0 .5-.2.5-.4l.9-5.8c.1-.4.5-.8.9-.8h2.1c4.4 0 6.9-2.1 7.6-6.3.3-1.8 0-3.3-.9-4.3-1.1-1.1-2.9-1.8-5.6-1.8zm.7 6.2c-.4 2.3-2.2 2.3-3.9 2.3h-1l.7-4.4c0-.2.2-.4.5-.4h.5c1.2 0 2.3 0 2.9.7.3.4.4 1 .2 1.8z"/>
  <path fill="#179BD7" d="M115 13h-3.3c-.2 0-.4.2-.5.4l-.1.7-.2-.3c-.7-1-2.2-1.3-3.8-1.3-3.5 0-6.5 2.7-7.1 6.4-.3 1.9.1 3.7 1.2 4.9 1 1.1 2.4 1.6 4.1 1.6 2.9 0 4.5-1.9 4.5-1.9l-.1.9c-.1.3.2.6.5.6h3c.4 0 .8-.3.9-.8l1.6-10.5c.1-.4-.2-.7-.5-.7zm-4.6 6c-.3 1.8-1.8 3-3.7 3-1 0-1.7-.3-2.2-.9-.5-.6-.7-1.4-.5-2.3.3-1.8 1.8-3 3.7-3 .9 0 1.7.3 2.2.9.5.5.7 1.4.5 2.3z"/>
  <path fill="#253B80" d="M119.4.4l-3.3 21.2c-.1.3.2.6.5.6h3.1c.4 0 .8-.3.9-.8L124 .2c.1-.3-.2-.6-.5-.6h-3.5c-.3.1-.5.4-.5.7z"/>
  <path fill="#179BD7" d="M7.3 32.7L8 28.3 7 28.4h-5L5.6.6C5.6.3 5.8 0 6.1 0h13.4c4.5 0 7.6 1 9.1 2.9 1.5 1.9 1.7 4.2.9 7.3-.1.3-.1.6-.2.8l-.2.6v.5l-.3.6c-.1.3-.3.5-.4.8-.2.3-.3.5-.5.8-.2.3-.4.5-.6.8-.2.3-.4.5-.7.7-.2.2-.5.5-.8.7-.3.2-.5.4-.8.6-.3.2-.6.4-.9.5-.3.2-.6.3-.9.4-.3.1-.7.3-1 .4-.3.1-.7.2-1 .3-.4.1-.7.2-1.1.2-.4.1-.7.1-1.1.2-.4 0-.7.1-1.1.1h-1.1c-.3 0-.7 0-1-.1-.3 0-.6-.1-.9-.1-.3 0-.6-.1-.8-.2-.3-.1-.5-.1-.7-.2l-.6-.2-.6-.3-.1.9-.4 2.6v.1l-.6 3.9v.1l-.4 2.4c0 .2-.1.3-.2.4-.1.1-.2.2-.4.2H7.3z"/>
  <path fill="#222D65" d="M23.4 7.2c0 .1-.1.1-.1.2 0-.1 0-.1.1-.2z"/>
  <path fill="#253B80" d="M23.3 7.4l-.2.6v-.5l.2-.6v.5z"/>
</svg> 
  <path fill="#253B80" d="M46.2 6.8h-6.5c-.4 0-.8.3-.9.8L35.5 29c-.1.3.2.6.5.6h3.3c.4 0 .8-.3.9-.8l.9-5.8c.1-.4.5-.8.9-.8h2.1c4.4 0 6.9-2.1 7.6-6.3.3-1.8 0-3.3-.9-4.3-1-1.1-2.8-1.8-5.5-1.8zm.8 6.2c-.4 2.3-2.2 2.3-3.9 2.3h-1l.7-4.4c0-.2.2-.4.5-.4h.5c1.2 0 2.3 0 2.9.7.4.4.5 1 .3 1.8z"/>
  <path fill="#253B80" d="M66.6 13h-3.3c-.2 0-.4.2-.5.4l-.1.7-.2-.3c-.7-1-2.2-1.3-3.8-1.3-3.5 0-6.5 2.7-7.1 6.4-.3 1.9.1 3.7 1.2 4.9 1 1.1 2.4 1.6 4.1 1.6 2.9 0 4.5-1.9 4.5-1.9l-.1.9c-.1.3.2.6.5.6h3c.4 0 .8-.3.9-.8l1.6-10.5c.1-.4-.2-.7-.5-.7zm-4.6 6c-.3 1.8-1.8 3-3.7 3-1 0-1.7-.3-2.2-.9-.5-.6-.7-1.4-.5-2.3.3-1.8 1.8-3 3.7-3 .9 0 1.7.3 2.2.9.5.5.7 1.4.5 2.3z"/>
  <path fill="#253B80" d="M84.1 13h-3.4c-.3 0-.6.1-.8.4l-4.6 6.8-1.9-6.4c-.1-.4-.5-.7-.9-.7h-3.3c-.4 0-.6.4-.5.7l3.6 10.6-3.4 4.8c-.3.4 0 .9.4.9H73c.3 0 .6-.1.8-.4l10.9-15.7c.2-.4 0-.9-.4-.9z"/>
  <path fill="#179BD7" d="M94.6 6.8h-6.5c-.4 0-.8.3-.9.8l-3.3 21.4c-.1.3.2.6.5.6h3.8c.3 0 .5-.2.5-.4l.9-5.8c.1-.4.5-.8.9-.8h2.1c4.4 0 6.9-2.1 7.6-6.3.3-1.8 0-3.3-.9-4.3-1.1-1.1-2.9-1.8-5.6-1.8zm.7 6.2c-.4 2.3-2.2 2.3-3.9 2.3h-1l.7-4.4c0-.2.2-.4.5-.4h.5c1.2 0 2.3 0 2.9.7.3.4.4 1 .2 1.8z"/>
  <path fill="#179BD7" d="M115 13h-3.3c-.2 0-.4.2-.5.4l-.1.7-.2-.3c-.7-1-2.2-1.3-3.8-1.3-3.5 0-6.5 2.7-7.1 6.4-.3 1.9.1 3.7 1.2 4.9 1 1.1 2.4 1.6 4.1 1.6 2.9 0 4.5-1.9 4.5-1.9l-.1.9c-.1.3.2.6.5.6h3c.4 0 .8-.3.9-.8l1.6-10.5c.1-.4-.2-.7-.5-.7zm-4.6 6c-.3 1.8-1.8 3-3.7 3-1 0-1.7-.3-2.2-.9-.5-.6-.7-1.4-.5-2.3.3-1.8 1.8-3 3.7-3 .9 0 1.7.3 2.2.9.5.5.7 1.4.5 2.3z"/>
  <path fill="#253B80" d="M119.4.4l-3.3 21.2c-.1.3.2.6.5.6h3.1c.4 0 .8-.3.9-.8L124 .2c.1-.3-.2-.6-.5-.6h-3.5c-.3.1-.5.4-.5.7z"/>
  <path fill="#179BD7" d="M7.3 32.7L8 28.3 7 28.4h-5L5.6.6C5.6.3 5.8 0 6.1 0h13.4c4.5 0 7.6 1 9.1 2.9 1.5 1.9 1.7 4.2.9 7.3-.1.3-.1.6-.2.8l-.2.6v.5l-.3.6c-.1.3-.3.5-.4.8-.2.3-.3.5-.5.8-.2.3-.4.5-.6.8-.2.3-.4.5-.7.7-.2.2-.5.5-.8.7-.3.2-.5.4-.8.6-.3.2-.6.4-.9.5-.3.2-.6.3-.9.4-.3.1-.7.3-1 .4-.3.1-.7.2-1 .3-.4.1-.7.2-1.1.2-.4.1-.7.1-1.1.2-.4 0-.7.1-1.1.1h-1.1c-.3 0-.7 0-1-.1-.3 0-.6-.1-.9-.1-.3 0-.6-.1-.8-.2-.3-.1-.5-.1-.7-.2l-.6-.2-.6-.3-.1.9-.4 2.6v.1l-.6 3.9v.1l-.4 2.4c0 .2-.1.3-.2.4-.1.1-.2.2-.4.2H7.3z"/>
  <path fill="#222D65" d="M23.4 7.2c0 .1-.1.1-.1.2 0-.1 0-.1.1-.2z"/>
  <path fill="#253B80" d="M23.3 7.4l-.2.6v-.5l.2-.6v.5z"/>
</svg> 